<svg width="21" height="20" viewBox="0 0 21 20" fill="none" xmlns="http://www.w3.org/2000/svg">
<path d="M3.86337 15.1C4.71337 14.45 5.66337 13.9373 6.71337 13.562C7.76337 13.1873 8.86337 13 10.0134 13C11.1634 13 12.2634 13.1873 13.3134 13.562C14.3634 13.9373 15.3134 14.45 16.1634 15.1C16.7467 14.4167 17.201 13.6417 17.5264 12.775C17.851 11.9083 18.0134 10.9833 18.0134 10C18.0134 7.78333 17.2344 5.89567 15.6764 4.337C14.1177 2.779 12.23 2 10.0134 2C7.7967 2 5.90937 2.779 4.35137 4.337C2.7927 5.89567 2.01337 7.78333 2.01337 10C2.01337 10.9833 2.17603 11.9083 2.50137 12.775C2.82603 13.6417 3.28003 14.4167 3.86337 15.1ZM10.0134 11C9.03003 11 8.2007 10.6627 7.52537 9.988C6.8507 9.31267 6.51337 8.48333 6.51337 7.5C6.51337 6.51667 6.8507 5.68733 7.52537 5.012C8.2007 4.33733 9.03003 4 10.0134 4C10.9967 4 11.826 4.33733 12.5014 5.012C13.176 5.68733 13.5134 6.51667 13.5134 7.5C13.5134 8.48333 13.176 9.31267 12.5014 9.988C11.826 10.6627 10.9967 11 10.0134 11ZM10.0134 20C8.63003 20 7.33003 19.7373 6.11337 19.212C4.8967 18.6873 3.83837 17.975 2.93837 17.075C2.03837 16.175 1.32603 15.1167 0.801367 13.9C0.276033 12.6833 0.0133667 11.3833 0.0133667 10C0.0133667 8.61667 0.276033 7.31667 0.801367 6.1C1.32603 4.88333 2.03837 3.825 2.93837 2.925C3.83837 2.025 4.8967 1.31233 6.11337 0.787C7.33003 0.262333 8.63003 0 10.0134 0C11.3967 0 12.6967 0.262333 13.9134 0.787C15.13 1.31233 16.1884 2.025 17.0884 2.925C17.9884 3.825 18.7007 4.88333 19.2254 6.1C19.7507 7.31667 20.0134 8.61667 20.0134 10C20.0134 11.3833 19.7507 12.6833 19.2254 13.9C18.7007 15.1167 17.9884 16.175 17.0884 17.075C16.1884 17.975 15.13 18.6873 13.9134 19.212C12.6967 19.7373 11.3967 20 10.0134 20ZM10.0134 18C10.8967 18 11.73 17.871 12.5134 17.613C13.2967 17.3543 14.0134 16.9833 14.6634 16.5C14.0134 16.0167 13.2967 15.6457 12.5134 15.387C11.73 15.129 10.8967 15 10.0134 15C9.13003 15 8.2967 15.129 7.51337 15.387C6.73003 15.6457 6.01337 16.0167 5.36337 16.5C6.01337 16.9833 6.73003 17.3543 7.51337 17.613C8.2967 17.871 9.13003 18 10.0134 18ZM10.0134 9C10.4467 9 10.805 8.85833 11.0884 8.575C11.3717 8.29167 11.5134 7.93333 11.5134 7.5C11.5134 7.06667 11.3717 6.70833 11.0884 6.425C10.805 6.14167 10.4467 6 10.0134 6C9.58003 6 9.2217 6.14167 8.93837 6.425C8.65503 6.70833 8.51337 7.06667 8.51337 7.5C8.51337 7.93333 8.65503 8.29167 8.93837 8.575C9.2217 8.85833 9.58003 9 10.0134 9Z" fill="#2D2C2C"/>
</svg>
