<?xml version="1.0" encoding="UTF-8" standalone="no"?>
<svg
   width="86.408882"
   height="21.348001"
   viewBox="0 0 86.408882 21.348001"
   fill="none"
   version="1.1"
   id="svg687"
   sodipodi:docname="CraftHoney1.svg"
   inkscape:version="1.1.2 (0a00cf5339, 2022-02-04)"
   xmlns:inkscape="http://www.inkscape.org/namespaces/inkscape"
   xmlns:sodipodi="http://sodipodi.sourceforge.net/DTD/sodipodi-0.dtd"
   xmlns="http://www.w3.org/2000/svg"
   xmlns:svg="http://www.w3.org/2000/svg">
  <sodipodi:namedview
     id="namedview689"
     pagecolor="#ffffff"
     bordercolor="#666666"
     borderopacity="1.0"
     inkscape:pageshadow="2"
     inkscape:pageopacity="0.0"
     inkscape:pagecheckerboard="0"
     showgrid="false"
     inkscape:zoom="14.234043"
     inkscape:cx="39.869208"
     inkscape:cy="10.50299"
     inkscape:window-width="1846"
     inkscape:window-height="1016"
     inkscape:window-x="74"
     inkscape:window-y="27"
     inkscape:window-maximized="1"
     inkscape:current-layer="svg687" />
  <path
     d="m 4.4509857,10.458001 c -7.7093333,-7.3 -3.85466673,-3.65 0,0 z m 0.9392,0.99 v 2.862 c -0.12,0.168 -0.33,0.252 -0.63,0.252 -0.3,0 -0.54,-0.09 -0.72,-0.27 -0.39227,-2.017859 -1.222461,-6.8059475 0.36,-7.92 0.3,0 0.54,0.096 0.72,0.288 0.18,0.18 0.27,0.45 0.27,0.81 v 1.368 c 0.6,-1.488 1.428,-2.232 2.484,-2.232 0.756,0 1.308,0.204 1.656,0.612 0.348,0.396 0.5220003,0.87 0.5220003,1.422 0,0.3 -0.09,0.54 -0.2700003,0.72 -0.18,0.18 -0.354,0.27 -0.522,0.27 -0.312,0 -0.516,-0.072 -0.612,-0.216 0.072,-0.18 0.108,-0.438 0.108,-0.774 0,-0.336 -0.114,-0.642 -0.342,-0.918 -0.228,-0.276 -0.504,-0.414 -0.828,-0.414 -0.564,0 -1.074,0.516 -1.53,1.548 -0.444,1.02 -0.666,1.884 -0.666,2.592 z m 10.7041003,-4.554 c 0.156,-0.348 0.402,-0.522 0.738,-0.522 0.348,0 0.606,0.084 0.774,0.252 v 5.166 c 0,0.684 0.108,1.2 0.324,1.548 0.216,0.348 0.51,0.522 0.882,0.522 1.128,0 1.692,-1.17 1.692,-3.51 0.012,-0.072 0.102,-0.108 0.27,-0.108 0.216,0 0.324,0.318 0.324,0.954 0,1.02 -0.222,1.836 -0.666,2.448 -0.432,0.612 -1.044,0.918 -1.836,0.918 -1.212,0 -2.016,-0.534 -2.412,-1.602 -0.228,0.492 -0.54,0.882 -0.936,1.17 -0.396,0.288 -0.846,0.432 -1.35,0.432 -2.1,0 -3.15,-1.374 -3.15,-4.122 0,-1.392 0.324,-2.418 0.972,-3.078 0.66,-0.66 1.53,-0.99 2.61,-0.99 0.828,0 1.416,0.174 1.764,0.522 z m -3.384,5.76 c 0.168,0.528 0.36,0.864 0.576,1.008 0.216,0.132 0.504,0.198 0.864,0.198 0.36,0 0.75,-0.222 1.17,-0.666 0.432,-0.456 0.648,-1.044 0.648,-1.764 v -2.466 c 0,-0.564 -0.15,-1.02 -0.45,-1.368 -0.288,-0.348 -0.618,-0.522 -0.99,-0.522 -0.36,0 -0.648,0.036 -0.864,0.108 -0.216,0.072 -0.42,0.222 -0.612,0.45 -0.396,0.432 -0.594,1.368 -0.594,2.808 0,0.948 0.084,1.686 0.252,2.214 z m 12.167,-5.4 h -2.718 v 13.842 c -0.12,0.168 -0.33,0.252 -0.63,0.252 -0.3,0 -0.54,-0.096 -0.72,-0.288 -0.18,-0.18 -0.27,-0.45 -0.27,-0.81 v -15.804 c 0,-1.524 0.162,-2.646 0.486,-3.366 C 21.349286,0.36 21.925286,0 22.753286,0 c 1.188,0 1.782,0.804001 1.782,2.412001 0,1.848 -0.624,3.252 -1.872,4.212 h 1.602 c 0.252,0 0.414,0.048 0.486,0.144 0.084,0.096 0.126,0.258 0.126,0.486 z m -1.116,-4.824 c 0,-1.152 -0.288,-1.728 -0.864,-1.728 -0.156,0 -0.276,0.054 -0.36,0.162 -0.084,0.096 -0.15,0.354 -0.198,0.774 -0.096,0.72 -0.156,2.256 -0.18,4.608 1.068,-0.78 1.602,-2.052 1.602,-3.816 z m 1.823,2.376 c 0,-0.36 0.09,-0.63 0.27,-0.81 0.18,-0.192 0.408,-0.288 0.684,-0.288 0.276,0 0.498,0.084 0.666,0.252 v 2.664 h 2.466 c 0.252,0 0.414,0.048 0.486,0.144 0.084,0.096 0.126,0.258 0.126,0.486 h -3.078 v 4.536 c 0,0.66 0.186,1.17 0.558,1.53 0.384,0.36 0.822,0.54 1.314,0.54 0.744,0 1.29,-0.276 1.638,-0.828 0.348,-0.552 0.522,-1.446 0.522,-2.682 0.024,-0.072 0.114,-0.108 0.27,-0.108 0.216,0 0.324,0.318 0.324,0.954 0,0.972 -0.246,1.776 -0.738,2.412 -0.48,0.636 -1.224,0.954 -2.232,0.954 -1.008,0 -1.806,-0.264 -2.394,-0.792 -0.588,-0.528 -0.882,-1.314 -0.882,-2.358 z m 23.1466,-3.402 c 0,-0.36 0.09,-0.63 0.27,-0.81 0.18,-0.192001 0.402,-0.288001 0.666,-0.288001 0.264,0 0.492,0.084 0.684,0.252001 v 9.828 h 1.602 c 0.204,0 0.36,0.054 0.468,0.162 0.12,0.096 0.18,0.222 0.18,0.378 0,0.156 -0.054,0.288 -0.162,0.396 h -2.088 v 3.42 c 0,0.36 -0.09,0.63 -0.27,0.81 -0.18,0.192 -0.402,0.288 -0.666,0.288 -0.264,0 -0.492,-0.084 -0.684,-0.252 v -4.266 h -5.274 v 1.008 c 0,1.5 -0.228,2.622 -0.684,3.366 -0.456,0.744 -1.182,1.116 -2.178,1.116 -0.6,0 -1.068,-0.192 -1.404,-0.576 -0.336,-0.384 -0.504,-0.93 -0.504,-1.638 0,-1.128 0.306,-2.046 0.918,-2.754 0.624,-0.708 1.368,-1.146 2.232,-1.314 v -7.542 c 0,-0.36 0.09,-0.63 0.27,-0.81 0.18,-0.192 0.402,-0.288 0.666,-0.288 0.264,0 0.492,0.084 0.684,0.252 v 8.262 h 5.274 z m -9.216,13.248 c 0,0.456 0.096,0.804 0.288,1.044 0.204,0.24 0.486,0.36 0.846,0.36 0.372,0 0.66,-0.258 0.864,-0.774 0.204,-0.516 0.312,-1.452 0.324,-2.808 v -1.008 c -0.684,0.156 -1.242,0.51 -1.674,1.062 -0.432,0.552 -0.648,1.26 -0.648,2.124 z m 17.514,-8.28 c 1.068,0 1.938,0.354 2.61,1.062 0.672,0.708 1.008,1.674 1.008,2.898 0,1.212 -0.318,2.22 -0.954,3.024 -0.624,0.804 -1.464,1.206 -2.52,1.206 -1.056,0 -1.938,-0.36 -2.646,-1.08 -0.696,-0.732 -1.044,-1.74 -1.044,-3.024 0,-1.296 0.324,-2.298 0.972,-3.006 0.66,-0.72 1.518,-1.08 2.574,-1.08 z m 0.018,0.702 c -0.324,0 -0.606,0.084 -0.846,0.252 -0.228,0.156 -0.342,0.384 -0.342,0.684 0,0.768 0.3,1.506 0.9,2.214 0.6,0.696 1.314,1.158 2.142,1.386 0.024,-0.456 0.036,-0.846 0.036,-1.17 0,-1.248 -0.132,-2.118 -0.396,-2.61 -0.264,-0.504 -0.762,-0.756 -1.494,-0.756 z m -1.854,3.366 c 0,1.224 0.15,2.1 0.45,2.628 0.312,0.528 0.816,0.792 1.512,0.792 0.48,0 0.846,-0.12 1.098,-0.36 0.264,-0.252 0.444,-0.654 0.54,-1.206 -0.78,-0.168 -1.5,-0.522 -2.16,-1.062 -0.648,-0.54 -1.122,-1.14 -1.422,-1.8 -0.012,0.204 -0.018,0.54 -0.018,1.008 z m 16.4282,-0.198 c 0.216,0 0.324,0.318 0.324,0.954 0,1.02 -0.222,1.836 -0.666,2.448 -0.432,0.612 -1.068,0.918 -1.908,0.918 -0.84,0 -1.488,-0.288 -1.944,-0.864 -0.444,-0.576 -0.666,-1.392 -0.666,-2.448 v -2.106 c 0,-1.428 -0.36,-2.142 -1.08,-2.142 -0.636,0 -1.158,0.324 -1.566,0.972 -0.408,0.648 -0.612,1.734 -0.612,3.258 v 3.078 c -0.12,0.168 -0.33,0.252 -0.63,0.252 -0.3,0 -0.54,-0.09 -0.72,-0.27 -0.18,-0.192 -0.27,-0.468 -0.27,-0.828 v -6.84 c 0.12,-0.168 0.348,-0.252 0.684,-0.252 0.624,0 0.936,0.45 0.936,1.35 0.504,-0.9 1.302,-1.35 2.394,-1.35 0.78,0 1.398,0.246 1.854,0.738 0.468,0.492 0.702,1.2 0.702,2.124 v 2.556 c 0,0.684 0.108,1.2 0.324,1.548 0.216,0.348 0.534,0.522 0.954,0.522 0.432,0 0.81,-0.264 1.134,-0.792 0.324,-0.54 0.486,-1.446 0.486,-2.718 0.012,-0.072 0.102,-0.108 0.27,-0.108 z m 7.3318,0.216 c 0.252,0 0.378,0.192 0.378,0.576 0,0.888 -0.312,1.698 -0.936,2.43 -0.612,0.732 -1.548,1.098 -2.808,1.098 -1.26,0 -2.274,-0.336 -3.042,-1.008 -0.756,-0.684 -1.134,-1.68 -1.134,-2.988 0,-1.32 0.336,-2.346 1.008,-3.078 0.672,-0.744 1.53,-1.116 2.574,-1.116 0.756,0 1.308,0.204 1.656,0.612 0.348,0.396 0.522,0.87 0.522,1.422 0,0.9 -0.378,1.65 -1.134,2.25 -0.744,0.588 -1.698,0.882 -2.862,0.882 0.108,0.768 0.384,1.35 0.828,1.746 0.456,0.384 1.05,0.576 1.782,0.576 0.744,0 1.41,-0.276 1.998,-0.828 0.6,-0.564 0.9,-1.386 0.9,-2.466 0.012,-0.072 0.102,-0.108 0.27,-0.108 z m -5.832,0.252 v 0.162 c 0.744,-0.096 1.386,-0.33 1.926,-0.702 0.552,-0.372 0.828,-0.924 0.828,-1.656 0,-0.468 -0.102,-0.822 -0.306,-1.062 -0.204,-0.252 -0.492,-0.378 -0.864,-0.378 -0.564,0 -0.972,0.276 -1.224,0.828 -0.24,0.552 -0.36,1.488 -0.36,2.808 z m 5.602,-3.24 c 0,-0.36 0.09,-0.63 0.27,-0.81 0.18,-0.192 0.408,-0.288 0.684,-0.288 0.276,0 0.498,0.084 0.666,0.252 v 5.166 c 0,1.428 0.36,2.142 1.08,2.142 0.648,0 1.176,-0.342 1.584,-1.026 0.42,-0.684 0.63,-1.836 0.63,-3.456 v -1.98 c 0,-0.36 0.09,-0.63 0.27,-0.81 0.18,-0.192 0.408,-0.288 0.684,-0.288 0.276,0 0.498,0.084 0.666,0.252 v 9.144 c 0.144,-0.012 0.372,-0.018 0.684,-0.018 0.312,0 0.468,0.132 0.468,0.396 l -0.108,0.27 c -0.456,0 -0.804,0.006 -1.044,0.018 v 0.9 c 0,1.236 -0.282,2.208 -0.846,2.916 -0.552,0.72 -1.296,1.08 -2.232,1.08 -0.552,0 -1.044,-0.168 -1.476,-0.504 -0.42,-0.324 -0.63,-0.84 -0.63,-1.548 0,-0.912 0.324,-1.638 0.972,-2.178 0.648,-0.54 1.512,-0.918 2.592,-1.134 v -2.808 c -0.504,0.936 -1.314,1.404 -2.43,1.404 -0.768,0 -1.374,-0.246 -1.818,-0.738 -0.444,-0.492 -0.666,-1.2 -0.666,-2.124 z m 2.268,11.862 c 0,0.42 0.114,0.738 0.342,0.954 0.228,0.228 0.504,0.342 0.828,0.342 0.324,0 0.588,-0.096 0.792,-0.288 0.456,-0.408 0.684,-1.638 0.684,-3.69 -1.764,0.396 -2.646,1.29 -2.646,2.682 z"
     fill="url(#paint0_linear_40_260)"
     id="path676"
     sodipodi:nodetypes="ccscscccscscssscssscscscssscsscscssscscscscsscsscsscccscssssscsccsscccsscsccscccscsscsscssssscsccscsccscscccsssssccscscccsscssccssssscscscsscsccscsscsccccssscscssssscscscscscssssccssscscscscscccsccssccscscsscscsscsscsccscccscscssccssssscsccs"
     style="fill:url(#paint0_linear_40_260)" />
  <defs
     id="defs685">
    <linearGradient
       id="paint0_linear_40_260"
       x1="7"
       y1="5.99999"
       x2="96.5"
       y2="15"
       gradientUnits="userSpaceOnUse"
       gradientTransform="translate(-7.1130143,-0.491999)">
      <stop
         stop-color="#EAAD02"
         id="stop678" />
      <stop
         offset="0.46141"
         stop-color="#DFA807"
         id="stop680" />
      <stop
         offset="1"
         stop-color="#A6780A"
         id="stop682" />
    </linearGradient>
  </defs>
</svg>
