<svg width="94" height="22" viewBox="0 0 94 22" fill="none" xmlns="http://www.w3.org/2000/svg">
<path d="M10.88 10.896C10.94 10.824 11.042 10.788 11.186 10.788C11.342 10.788 11.468 10.842 11.564 10.95C11.66 11.058 11.708 11.262 11.708 11.562C11.708 11.862 11.606 12.264 11.402 12.768C11.21 13.26 10.922 13.758 10.538 14.262C10.154 14.754 9.62 15.162 8.936 15.486C8.264 15.81 7.508 15.972 6.668 15.972C4.724 15.972 3.164 15.348 1.988 14.1C0.812 12.84 0.224 11.052 0.224 8.736C0.224 6.408 0.776 4.662 1.88 3.498C2.996 2.322 4.454 1.734 6.254 1.734C7.418 1.734 8.33 2.034 8.99 2.634C9.65 3.234 9.98 3.9 9.98 4.632C9.98 4.932 9.89 5.172 9.71 5.352C9.53 5.532 9.35 5.622 9.17 5.622C8.834 5.622 8.606 5.55 8.486 5.406C8.558 5.226 8.594 5.004 8.594 4.74C8.594 4.092 8.384 3.576 7.964 3.192C7.556 2.808 6.956 2.616 6.164 2.616C4.976 2.616 3.962 3.186 3.122 4.326C2.294 5.454 1.88 6.954 1.88 8.826C1.88 10.698 2.342 12.21 3.266 13.362C4.19 14.502 5.3 15.072 6.596 15.072C7.892 15.072 8.93 14.682 9.71 13.902C10.49 13.11 10.88 12.108 10.88 10.896ZM12.5032 11.94V14.802C12.3832 14.97 12.1732 15.054 11.8732 15.054C11.5732 15.054 11.3332 14.964 11.1532 14.784C10.9732 14.592 10.8832 14.316 10.8832 13.956V7.116C11.0032 6.948 11.2132 6.864 11.5132 6.864C11.8132 6.864 12.0532 6.96 12.2332 7.152C12.4132 7.332 12.5032 7.602 12.5032 7.962V9.33C13.1032 7.842 13.9312 7.098 14.9872 7.098C15.7432 7.098 16.2952 7.302 16.6432 7.71C16.9912 8.106 17.1652 8.58 17.1652 9.132C17.1652 9.432 17.0752 9.672 16.8952 9.852C16.7152 10.032 16.5412 10.122 16.3732 10.122C16.0612 10.122 15.8572 10.05 15.7612 9.906C15.8332 9.726 15.8692 9.468 15.8692 9.132C15.8692 8.796 15.7552 8.49 15.5272 8.214C15.2992 7.938 15.0232 7.8 14.6992 7.8C14.1352 7.8 13.6252 8.316 13.1692 9.348C12.7252 10.368 12.5032 11.232 12.5032 11.94ZM23.2073 7.386C23.3633 7.038 23.6093 6.864 23.9453 6.864C24.2933 6.864 24.5513 6.948 24.7193 7.116V12.282C24.7193 12.966 24.8273 13.482 25.0433 13.83C25.2593 14.178 25.5533 14.352 25.9253 14.352C27.0533 14.352 27.6173 13.182 27.6173 10.842C27.6293 10.77 27.7193 10.734 27.8873 10.734C28.1033 10.734 28.2113 11.052 28.2113 11.688C28.2113 12.708 27.9893 13.524 27.5453 14.136C27.1133 14.748 26.5013 15.054 25.7093 15.054C24.4973 15.054 23.6933 14.52 23.2973 13.452C23.0693 13.944 22.7573 14.334 22.3613 14.622C21.9653 14.91 21.5153 15.054 21.0113 15.054C18.9113 15.054 17.8613 13.68 17.8613 10.932C17.8613 9.54 18.1853 8.514 18.8333 7.854C19.4933 7.194 20.3633 6.864 21.4433 6.864C22.2713 6.864 22.8593 7.038 23.2073 7.386ZM19.8233 13.146C19.9913 13.674 20.1833 14.01 20.3993 14.154C20.6153 14.286 20.9033 14.352 21.2633 14.352C21.6233 14.352 22.0133 14.13 22.4333 13.686C22.8653 13.23 23.0813 12.642 23.0813 11.922V9.456C23.0813 8.892 22.9313 8.436 22.6313 8.088C22.3433 7.74 22.0133 7.566 21.6413 7.566C21.2813 7.566 20.9933 7.602 20.7773 7.674C20.5613 7.746 20.3573 7.896 20.1653 8.124C19.7693 8.556 19.5713 9.492 19.5713 10.932C19.5713 11.88 19.6553 12.618 19.8233 13.146ZM31.9903 7.746H29.2723V21.588C29.1523 21.756 28.9423 21.84 28.6423 21.84C28.3423 21.84 28.1023 21.744 27.9223 21.552C27.7423 21.372 27.6523 21.102 27.6523 20.742V4.938C27.6523 3.414 27.8143 2.292 28.1383 1.572C28.4623 0.851999 29.0383 0.491999 29.8663 0.491999C31.0543 0.491999 31.6483 1.296 31.6483 2.904C31.6483 4.752 31.0243 6.156 29.7763 7.116H31.3783C31.6303 7.116 31.7923 7.164 31.8643 7.26C31.9483 7.356 31.9903 7.518 31.9903 7.746ZM30.8743 2.922C30.8743 1.77 30.5863 1.194 30.0103 1.194C29.8543 1.194 29.7343 1.248 29.6503 1.356C29.5663 1.452 29.5003 1.71 29.4523 2.13C29.3563 2.85 29.2963 4.386 29.2723 6.738C30.3403 5.958 30.8743 4.686 30.8743 2.922ZM32.6973 5.298C32.6973 4.938 32.7873 4.668 32.9673 4.488C33.1473 4.296 33.3753 4.2 33.6513 4.2C33.9273 4.2 34.1493 4.284 34.3173 4.452V7.116H36.7833C37.0353 7.116 37.1973 7.164 37.2693 7.26C37.3533 7.356 37.3953 7.518 37.3953 7.746H34.3173V12.282C34.3173 12.942 34.5033 13.452 34.8753 13.812C35.2593 14.172 35.6973 14.352 36.1893 14.352C36.9333 14.352 37.4793 14.076 37.8273 13.524C38.1753 12.972 38.3493 12.078 38.3493 10.842C38.3733 10.77 38.4633 10.734 38.6193 10.734C38.8353 10.734 38.9433 11.052 38.9433 11.688C38.9433 12.66 38.6973 13.464 38.2053 14.1C37.7253 14.736 36.9813 15.054 35.9733 15.054C34.9653 15.054 34.1673 14.79 33.5793 14.262C32.9913 13.734 32.6973 12.948 32.6973 11.904V5.298ZM55.8439 1.896C55.8439 1.536 55.9339 1.266 56.1139 1.086C56.2939 0.893999 56.5159 0.797999 56.7799 0.797999C57.0439 0.797999 57.2719 0.881999 57.4639 1.05V10.878H59.0659C59.2699 10.878 59.4259 10.932 59.5339 11.04C59.6539 11.136 59.7139 11.262 59.7139 11.418C59.7139 11.574 59.6599 11.706 59.5519 11.814H57.4639V15.234C57.4639 15.594 57.3739 15.864 57.1939 16.044C57.0139 16.236 56.7919 16.332 56.5279 16.332C56.2639 16.332 56.0359 16.248 55.8439 16.08V11.814H50.5699V12.822C50.5699 14.322 50.3419 15.444 49.8859 16.188C49.4299 16.932 48.7039 17.304 47.7079 17.304C47.1079 17.304 46.6399 17.112 46.3039 16.728C45.9679 16.344 45.7999 15.798 45.7999 15.09C45.7999 13.962 46.1059 13.044 46.7179 12.336C47.3419 11.628 48.0859 11.19 48.9499 11.022V3.48C48.9499 3.12 49.0399 2.85 49.2199 2.67C49.3999 2.478 49.6219 2.382 49.8859 2.382C50.1499 2.382 50.3779 2.466 50.5699 2.634V10.896H55.8439V1.896ZM46.6279 15.144C46.6279 15.6 46.7239 15.948 46.9159 16.188C47.1199 16.428 47.4019 16.548 47.7619 16.548C48.1339 16.548 48.4219 16.29 48.6259 15.774C48.8299 15.258 48.9379 14.322 48.9499 12.966V11.958C48.2659 12.114 47.7079 12.468 47.2759 13.02C46.8439 13.572 46.6279 14.28 46.6279 15.144ZM64.1419 6.864C65.2099 6.864 66.0799 7.218 66.7519 7.926C67.4239 8.634 67.7599 9.6 67.7599 10.824C67.7599 12.036 67.4419 13.044 66.8059 13.848C66.1819 14.652 65.3419 15.054 64.2859 15.054C63.2299 15.054 62.3479 14.694 61.6399 13.974C60.9439 13.242 60.5959 12.234 60.5959 10.95C60.5959 9.654 60.9199 8.652 61.5679 7.944C62.2279 7.224 63.0859 6.864 64.1419 6.864ZM64.1599 7.566C63.8359 7.566 63.5539 7.65 63.3139 7.818C63.0859 7.974 62.9719 8.202 62.9719 8.502C62.9719 9.27 63.2719 10.008 63.8719 10.716C64.4719 11.412 65.1859 11.874 66.0139 12.102C66.0379 11.646 66.0499 11.256 66.0499 10.932C66.0499 9.684 65.9179 8.814 65.6539 8.322C65.3899 7.818 64.8919 7.566 64.1599 7.566ZM62.3059 10.932C62.3059 12.156 62.4559 13.032 62.7559 13.56C63.0679 14.088 63.5719 14.352 64.2679 14.352C64.7479 14.352 65.1139 14.232 65.3659 13.992C65.6299 13.74 65.8099 13.338 65.9059 12.786C65.1259 12.618 64.4059 12.264 63.7459 11.724C63.0979 11.184 62.6239 10.584 62.3239 9.924C62.3119 10.128 62.3059 10.464 62.3059 10.932ZM78.7341 10.734C78.9501 10.734 79.0581 11.052 79.0581 11.688C79.0581 12.708 78.8361 13.524 78.3921 14.136C77.9601 14.748 77.3241 15.054 76.4841 15.054C75.6441 15.054 74.9961 14.766 74.5401 14.19C74.0961 13.614 73.8741 12.798 73.8741 11.742V9.636C73.8741 8.208 73.5141 7.494 72.7941 7.494C72.1581 7.494 71.6361 7.818 71.2281 8.466C70.8201 9.114 70.6161 10.2 70.6161 11.724V14.802C70.4961 14.97 70.2861 15.054 69.9861 15.054C69.6861 15.054 69.4461 14.964 69.2661 14.784C69.0861 14.592 68.9961 14.316 68.9961 13.956V7.116C69.1161 6.948 69.3441 6.864 69.6801 6.864C70.3041 6.864 70.6161 7.314 70.6161 8.214C71.1201 7.314 71.9181 6.864 73.0101 6.864C73.7901 6.864 74.4081 7.11 74.8641 7.602C75.3321 8.094 75.5661 8.802 75.5661 9.726V12.282C75.5661 12.966 75.6741 13.482 75.8901 13.83C76.1061 14.178 76.4241 14.352 76.8441 14.352C77.2761 14.352 77.6541 14.088 77.9781 13.56C78.3021 13.02 78.4641 12.114 78.4641 10.842C78.4761 10.77 78.5661 10.734 78.7341 10.734ZM86.0659 10.95C86.3179 10.95 86.4439 11.142 86.4439 11.526C86.4439 12.414 86.1319 13.224 85.5079 13.956C84.8959 14.688 83.9599 15.054 82.6999 15.054C81.4399 15.054 80.4259 14.718 79.6579 14.046C78.9019 13.362 78.5239 12.366 78.5239 11.058C78.5239 9.738 78.8599 8.712 79.5319 7.98C80.2039 7.236 81.0619 6.864 82.1059 6.864C82.8619 6.864 83.4139 7.068 83.7619 7.476C84.1099 7.872 84.2839 8.346 84.2839 8.898C84.2839 9.798 83.9059 10.548 83.1499 11.148C82.4059 11.736 81.4519 12.03 80.2879 12.03C80.3959 12.798 80.6719 13.38 81.1159 13.776C81.5719 14.16 82.1659 14.352 82.8979 14.352C83.6419 14.352 84.3079 14.076 84.8959 13.524C85.4959 12.96 85.7959 12.138 85.7959 11.058C85.8079 10.986 85.8979 10.95 86.0659 10.95ZM80.2339 11.202V11.364C80.9779 11.268 81.6199 11.034 82.1599 10.662C82.7119 10.29 82.9879 9.738 82.9879 9.006C82.9879 8.538 82.8859 8.184 82.6819 7.944C82.4779 7.692 82.1899 7.566 81.8179 7.566C81.2539 7.566 80.8459 7.842 80.5939 8.394C80.3539 8.946 80.2339 9.882 80.2339 11.202ZM85.8359 7.962C85.8359 7.602 85.9259 7.332 86.1059 7.152C86.2859 6.96 86.5139 6.864 86.7899 6.864C87.0659 6.864 87.2879 6.948 87.4559 7.116V12.282C87.4559 13.71 87.8159 14.424 88.5359 14.424C89.1839 14.424 89.7119 14.082 90.1199 13.398C90.5399 12.714 90.7499 11.562 90.7499 9.942V7.962C90.7499 7.602 90.8399 7.332 91.0199 7.152C91.1999 6.96 91.4279 6.864 91.7039 6.864C91.9799 6.864 92.2019 6.948 92.3699 7.116V16.26C92.5139 16.248 92.7419 16.242 93.0539 16.242C93.3659 16.242 93.5219 16.374 93.5219 16.638L93.4139 16.908C92.9579 16.908 92.6099 16.914 92.3699 16.926V17.826C92.3699 19.062 92.0879 20.034 91.5239 20.742C90.9719 21.462 90.2279 21.822 89.2919 21.822C88.7399 21.822 88.2479 21.654 87.8159 21.318C87.3959 20.994 87.1859 20.478 87.1859 19.77C87.1859 18.858 87.5099 18.132 88.1579 17.592C88.8059 17.052 89.6699 16.674 90.7499 16.458V13.65C90.2459 14.586 89.4359 15.054 88.3199 15.054C87.5519 15.054 86.9459 14.808 86.5019 14.316C86.0579 13.824 85.8359 13.116 85.8359 12.192V7.962ZM88.1039 19.824C88.1039 20.244 88.2179 20.562 88.4459 20.778C88.6739 21.006 88.9499 21.12 89.2739 21.12C89.5979 21.12 89.8619 21.024 90.0659 20.832C90.5219 20.424 90.7499 19.194 90.7499 17.142C88.9859 17.538 88.1039 18.432 88.1039 19.824Z" fill="url(#paint0_linear_40_260)"/>
<defs>
<linearGradient id="paint0_linear_40_260" x1="7" y1="5.99999" x2="96.5" y2="15" gradientUnits="userSpaceOnUse">
<stop stop-color="#EAAD02"/>
<stop offset="0.46141" stop-color="#DFA807"/>
<stop offset="1" stop-color="#A6780A"/>
</linearGradient>
</defs>
</svg>
