<svg width="24" height="25" viewBox="0 0 24 25" fill="none" xmlns="http://www.w3.org/2000/svg">
<rect width="24" height="24" transform="translate(0 0.259766)" fill="#383838"/>
<path fill-rule="evenodd" clip-rule="evenodd" d="M7.07692 3.029V3.79823H13.2308H19.3846V12.2598V20.7213H13.2308H7.07692V21.4905V22.2598H14H20.9231V12.2598V2.25977H14H7.07692V3.029ZM10.3699 5.86587L9.84236 6.39505L12.3898 8.94279L14.9372 11.4905H9.46856H4V12.2598V13.029H9.46856H14.9372L12.4022 15.5651L9.86721 18.1011L10.3937 18.6327L10.9201 19.1642L14.3828 15.7L17.8456 12.2357L14.3965 8.78621C12.4995 6.88895 10.9361 5.33669 10.9224 5.33669C10.9087 5.33669 10.66 5.57481 10.3699 5.86587Z" fill="white"/>
</svg>
