<svg width="21" height="20" viewBox="0 0 21 20" fill="none" xmlns="http://www.w3.org/2000/svg">
<path d="M6.08008 20C5.53008 20 5.05941 19.8043 4.66808 19.413C4.27608 19.021 4.08008 18.55 4.08008 18C4.08008 17.45 4.27608 16.979 4.66808 16.587C5.05941 16.1957 5.53008 16 6.08008 16C6.63008 16 7.10074 16.1957 7.49208 16.587C7.88408 16.979 8.08008 17.45 8.08008 18C8.08008 18.55 7.88408 19.021 7.49208 19.413C7.10074 19.8043 6.63008 20 6.08008 20ZM16.0801 20C15.5301 20 15.0594 19.8043 14.6681 19.413C14.2761 19.021 14.0801 18.55 14.0801 18C14.0801 17.45 14.2761 16.979 14.6681 16.587C15.0594 16.1957 15.5301 16 16.0801 16C16.6301 16 17.1011 16.1957 17.4931 16.587C17.8844 16.979 18.0801 17.45 18.0801 18C18.0801 18.55 17.8844 19.021 17.4931 19.413C17.1011 19.8043 16.6301 20 16.0801 20ZM5.23008 4L7.63008 9H14.6301L17.3801 4H5.23008ZM4.28008 2H19.0301C19.4134 2 19.7051 2.17067 19.9051 2.512C20.1051 2.854 20.1134 3.2 19.9301 3.55L16.3801 9.95C16.1967 10.2833 15.9507 10.5417 15.6421 10.725C15.3341 10.9083 14.9967 11 14.6301 11H7.18008L6.08008 13H18.0801V15H6.08008C5.33008 15 4.76341 14.6707 4.38008 14.012C3.99675 13.354 3.98008 12.7 4.33008 12.05L5.68008 9.6L2.08008 2H0.0800781V0H3.33008L4.28008 2Z" fill="#555555"/>
</svg>
