<svg width="128" height="128" viewBox="0 0 128 128" fill="none" xmlns="http://www.w3.org/2000/svg">
<rect width="128" height="128" rx="64" fill="#5181B8"/>
<path fill-rule="evenodd" clip-rule="evenodd" d="M104.832 44.0959C105.421 42.1119 104.832 40.6655 102.003 40.6655H92.672C90.304 40.6655 89.2032 41.9199 88.6144 43.3023C88.6144 43.3023 83.8656 54.8735 77.1456 62.3871C74.9696 64.5631 73.984 65.2543 72.7936 65.2543C72.2048 65.2543 71.3472 64.5631 71.3472 62.5791V44.0959C71.3472 41.7279 70.656 40.6655 68.6848 40.6655H54.016C52.5312 40.6655 51.6352 41.7663 51.6352 42.8159C51.6352 45.0687 55.0016 45.5807 55.3472 51.9167V65.6639C55.3472 68.6719 54.7968 69.2223 53.6192 69.2223C50.4576 69.2223 42.7648 57.5999 38.1952 44.3007C37.2992 41.7151 36.4032 40.6783 34.0224 40.6783H24.6912C22.0288 40.6783 21.4912 41.9327 21.4912 43.3151C21.4912 45.7855 24.6528 58.0479 36.224 74.2655C43.9424 85.3375 54.7968 91.3407 64.6912 91.3407C70.6176 91.3407 71.36 90.0095 71.36 87.7055V79.3343C71.36 76.6719 71.9232 76.1343 73.8048 76.1343C75.1872 76.1343 77.568 76.8255 83.0976 82.1631C89.4208 88.4863 90.4704 91.3279 94.0288 91.3279H103.36C106.022 91.3279 107.354 89.9967 106.586 87.3599C105.741 84.7359 102.72 80.9343 98.7136 76.4159C96.5376 73.8431 93.2736 71.0783 92.288 69.6959C90.9056 67.9167 91.3024 67.1231 92.288 65.5487C92.2752 65.5487 103.642 49.5359 104.832 44.0959Z" fill="white"/>
</svg>
