<svg width="128" height="128" viewBox="0 0 128 128" fill="none" xmlns="http://www.w3.org/2000/svg">
<rect width="128" height="128" rx="64" fill="url(#paint0_linear_36_4240)"/>
<path d="M64 28.1855C75.6608 28.1855 77.0432 28.2239 81.6512 28.4415C85.9136 28.6335 88.2304 29.3503 89.7664 29.9519C91.8016 30.7455 93.2608 31.6927 94.784 33.2159C96.3072 34.7391 97.2544 36.1983 98.048 38.2335C98.6496 39.7695 99.3536 42.0863 99.5584 46.3487C99.7632 50.9567 99.8144 52.3391 99.8144 63.9999C99.8144 75.6607 99.776 77.0431 99.5584 81.6511C99.3664 85.9135 98.6496 88.2303 98.048 89.7663C97.2544 91.8015 96.3072 93.2607 94.784 94.7839C93.2608 96.3071 91.8016 97.2543 89.7664 98.0479C88.2304 98.6495 85.9136 99.3535 81.6512 99.5583C77.0432 99.7631 75.6608 99.8143 64 99.8143C52.3392 99.8143 50.9568 99.7759 46.3488 99.5583C42.0864 99.3663 39.7696 98.6495 38.2336 98.0479C36.1984 97.2543 34.7392 96.3071 33.216 94.7839C31.6928 93.2607 30.7456 91.8015 29.952 89.7663C29.3504 88.2303 28.6464 85.9135 28.4416 81.6511C28.2368 77.0431 28.1856 75.6607 28.1856 63.9999C28.1856 52.3391 28.224 50.9567 28.4416 46.3487C28.6336 42.0863 29.3504 39.7695 29.952 38.2335C30.7456 36.1983 31.6928 34.7391 33.216 33.2159C34.7392 31.6927 36.1984 30.7455 38.2336 29.9519C39.7696 29.3503 42.0864 28.6463 46.3488 28.4415C50.9568 28.2239 52.3392 28.1855 64 28.1855ZM64 20.3135C52.1344 20.3135 50.6496 20.3647 45.9904 20.5823C41.344 20.7999 38.1696 21.5295 35.3792 22.6175C32.512 23.7183 30.0672 25.2159 27.648 27.6479C25.216 30.0799 23.7312 32.5119 22.6048 35.3919C21.5296 38.1695 20.7872 41.3439 20.5696 46.0031C20.352 50.6623 20.3008 52.1471 20.3008 64.0127C20.3008 75.8783 20.352 77.3631 20.5696 82.0223C20.7872 86.6687 21.5168 89.8431 22.6048 92.6335C23.7184 95.4879 25.216 97.9327 27.648 100.352C30.08 102.784 32.512 104.269 35.392 105.395C38.1696 106.47 41.344 107.213 46.0032 107.43C50.6624 107.648 52.1472 107.699 64.0128 107.699C75.8784 107.699 77.3632 107.648 82.0224 107.43C86.6688 107.213 89.8432 106.483 92.6336 105.395C95.488 104.281 97.9328 102.784 100.352 100.352C102.784 97.9199 104.269 95.4879 105.395 92.6079C106.47 89.8303 107.213 86.6559 107.43 81.9967C107.648 77.3375 107.699 75.8527 107.699 63.9871C107.699 52.1215 107.648 50.6367 107.43 45.9775C107.213 41.3311 106.483 38.1567 105.395 35.3663C104.282 32.5119 102.784 30.0671 100.352 27.6479C97.92 25.2159 95.488 23.7311 92.608 22.6047C89.8304 21.5295 86.656 20.7871 81.9968 20.5695C77.3504 20.3647 75.8656 20.3135 64 20.3135Z" fill="white"/>
<path d="M63.9999 41.5615C51.6095 41.5615 41.5615 51.6095 41.5615 63.9999C41.5615 76.3903 51.6095 86.4383 63.9999 86.4383C76.3903 86.4383 86.4383 76.3903 86.4383 63.9999C86.4383 51.6095 76.3903 41.5615 63.9999 41.5615ZM63.9999 78.5663C55.9615 78.5663 49.4335 72.0511 49.4335 63.9999C49.4335 55.9487 55.9615 49.4335 63.9999 49.4335C72.0383 49.4335 78.5663 55.9487 78.5663 63.9999C78.5663 72.0511 72.0383 78.5663 63.9999 78.5663Z" fill="white"/>
<path d="M87.3212 45.9262C90.2196 45.9262 92.5692 43.5766 92.5692 40.6782C92.5692 37.7798 90.2196 35.4302 87.3212 35.4302C84.4229 35.4302 82.0732 37.7798 82.0732 40.6782C82.0732 43.5766 84.4229 45.9262 87.3212 45.9262Z" fill="white"/>
<defs>
<linearGradient id="paint0_linear_36_4240" x1="18.7452" y1="109.255" x2="109.255" y2="18.7452" gradientUnits="userSpaceOnUse">
<stop stop-color="#FFD521"/>
<stop offset="0.0551048" stop-color="#FFD020"/>
<stop offset="0.1241" stop-color="#FEC01E"/>
<stop offset="0.2004" stop-color="#FCA71B"/>
<stop offset="0.2821" stop-color="#FA8316"/>
<stop offset="0.3681" stop-color="#F85510"/>
<stop offset="0.4563" stop-color="#F51E09"/>
<stop offset="0.5" stop-color="#F30005"/>
<stop offset="0.5035" stop-color="#F20007"/>
<stop offset="0.5966" stop-color="#E1003B"/>
<stop offset="0.6879" stop-color="#D30067"/>
<stop offset="0.7757" stop-color="#C70088"/>
<stop offset="0.8589" stop-color="#BF00A0"/>
<stop offset="0.9357" stop-color="#BB00AF"/>
<stop offset="1" stop-color="#B900B4"/>
</linearGradient>
</defs>
</svg>
