<svg width="23" height="23" viewBox="0 0 23 23" fill="none" xmlns="http://www.w3.org/2000/svg">
<path d="M4.1667 5.68126L0.788574 2.30417L2.26253 0.830215L5.63962 4.20834H21.5167C21.6791 4.20833 21.8392 4.24627 21.9843 4.31914C22.1294 4.39201 22.2554 4.49778 22.3524 4.62802C22.4493 4.75827 22.5145 4.90937 22.5426 5.06926C22.5708 5.22916 22.5612 5.39343 22.5146 5.54897L20.0146 13.8823C19.9503 14.097 19.8185 14.2852 19.6387 14.419C19.4589 14.5528 19.2408 14.625 19.0167 14.625H6.25003V16.7083H17.7084V18.7917H5.20837C4.9321 18.7917 4.66715 18.6819 4.4718 18.4866C4.27645 18.2912 4.1667 18.0263 4.1667 17.75V5.68126ZM5.7292 22.9583C5.3148 22.9583 4.91737 22.7937 4.62434 22.5007C4.33132 22.2077 4.1667 21.8102 4.1667 21.3958C4.1667 20.9814 4.33132 20.584 4.62434 20.291C4.91737 19.998 5.3148 19.8333 5.7292 19.8333C6.1436 19.8333 6.54103 19.998 6.83405 20.291C7.12708 20.584 7.2917 20.9814 7.2917 21.3958C7.2917 21.8102 7.12708 22.2077 6.83405 22.5007C6.54103 22.7937 6.1436 22.9583 5.7292 22.9583ZM18.2292 22.9583C17.8148 22.9583 17.4174 22.7937 17.1243 22.5007C16.8313 22.2077 16.6667 21.8102 16.6667 21.3958C16.6667 20.9814 16.8313 20.584 17.1243 20.291C17.4174 19.998 17.8148 19.8333 18.2292 19.8333C18.6436 19.8333 19.041 19.998 19.3341 20.291C19.6271 20.584 19.7917 20.9814 19.7917 21.3958C19.7917 21.8102 19.6271 22.2077 19.3341 22.5007C19.041 22.7937 18.6436 22.9583 18.2292 22.9583Z" fill="#0D0D0D"/>
</svg>
