<svg width="24" height="25" viewBox="0 0 24 25" fill="none" xmlns="http://www.w3.org/2000/svg">
<path d="M12.2449 4.73469C14.5442 4.73469 16.0953 5.72789 16.9796 6.55782L20.4354 3.18367C18.3129 1.21088 15.551 0 12.2449 0C7.45581 0 3.31976 2.7483 1.30615 6.7483L5.26533 9.82313C6.25853 6.87075 9.00683 4.73469 12.2449 4.73469Z" fill="#EA4335"/>
<path d="M24 12.517C24 11.5102 23.9184 10.7755 23.7415 10.0136H12.2449V14.5578H18.9932C18.8571 15.6871 18.1225 17.3877 16.4898 18.5306L20.3537 21.5238C22.6667 19.3877 24 16.2449 24 12.517Z" fill="#4285F4"/>
<path d="M5.27891 14.6666C5.02041 13.9047 4.87075 13.0884 4.87075 12.2449C4.87075 11.4013 5.02044 10.585 5.26533 9.82313L1.30615 6.7483C0.47622 8.40816 0 10.2721 0 12.2449C0 14.2177 0.47619 16.0816 1.30612 17.7415L5.27891 14.6666Z" fill="#FBBC05"/>
<path d="M12.2449 24.4897C15.551 24.4897 18.3265 23.4013 20.3537 21.5238L16.4898 18.5306C15.4558 19.2517 14.068 19.755 12.2449 19.755C9.00677 19.755 6.2585 17.619 5.27891 14.6666L1.3197 17.7414C3.33331 21.7414 7.45575 24.4897 12.2449 24.4897Z" fill="#34A853"/>
</svg>
