<svg width="32" height="32" viewBox="0 0 32 32" fill="none" xmlns="http://www.w3.org/2000/svg">
<rect width="32" height="32" rx="16" fill="url(#paint0_linear_39_37)"/>
<path d="M16 7.0464C18.9152 7.0464 19.2608 7.056 20.4128 7.1104C21.4784 7.1584 22.0576 7.3376 22.4416 7.488C22.9504 7.6864 23.3152 7.9232 23.696 8.304C24.0768 8.6848 24.3136 9.0496 24.512 9.5584C24.6624 9.9424 24.8384 10.5216 24.8896 11.5872C24.9408 12.7392 24.9536 13.0848 24.9536 16C24.9536 18.9152 24.944 19.2608 24.8896 20.4128C24.8416 21.4784 24.6624 22.0576 24.512 22.4416C24.3136 22.9504 24.0768 23.3152 23.696 23.696C23.3152 24.0768 22.9504 24.3136 22.4416 24.512C22.0576 24.6624 21.4784 24.8384 20.4128 24.8896C19.2608 24.9408 18.9152 24.9536 16 24.9536C13.0848 24.9536 12.7392 24.944 11.5872 24.8896C10.5216 24.8416 9.9424 24.6624 9.5584 24.512C9.0496 24.3136 8.6848 24.0768 8.304 23.696C7.9232 23.3152 7.6864 22.9504 7.488 22.4416C7.3376 22.0576 7.1616 21.4784 7.1104 20.4128C7.0592 19.2608 7.0464 18.9152 7.0464 16C7.0464 13.0848 7.056 12.7392 7.1104 11.5872C7.1584 10.5216 7.3376 9.9424 7.488 9.5584C7.6864 9.0496 7.9232 8.6848 8.304 8.304C8.6848 7.9232 9.0496 7.6864 9.5584 7.488C9.9424 7.3376 10.5216 7.1616 11.5872 7.1104C12.7392 7.056 13.0848 7.0464 16 7.0464ZM16 5.0784C13.0336 5.0784 12.6624 5.0912 11.4976 5.1456C10.336 5.2 9.5424 5.3824 8.84479 5.6544C8.128 5.9296 7.5168 6.304 6.912 6.912C6.304 7.52 5.9328 8.128 5.6512 8.848C5.3824 9.5424 5.1968 10.336 5.1424 11.5008C5.088 12.6656 5.0752 13.0368 5.0752 16.0032C5.0752 18.9696 5.088 19.3408 5.1424 20.5056C5.1968 21.6672 5.3792 22.4608 5.6512 23.1584C5.9296 23.872 6.304 24.4832 6.912 25.088C7.52 25.696 8.128 26.0672 8.848 26.3488C9.5424 26.6176 10.336 26.8032 11.5008 26.8576C12.6656 26.912 13.0368 26.9248 16.0032 26.9248C18.9696 26.9248 19.3408 26.912 20.5056 26.8576C21.6672 26.8032 22.4608 26.6208 23.1584 26.3488C23.872 26.0704 24.4832 25.696 25.088 25.088C25.696 24.48 26.0672 23.872 26.3488 23.152C26.6176 22.4576 26.8032 21.664 26.8576 20.4992C26.912 19.3344 26.9248 18.9632 26.9248 15.9968C26.9248 13.0304 26.912 12.6592 26.8576 11.4944C26.8032 10.3328 26.6208 9.5392 26.3488 8.8416C26.0704 8.128 25.696 7.5168 25.088 6.912C24.48 6.304 23.872 5.9328 23.152 5.6512C22.4576 5.3824 21.664 5.1968 20.4992 5.1424C19.3376 5.0912 18.9664 5.0784 16 5.0784Z" fill="white"/>
<path d="M16.0002 10.3904C12.9026 10.3904 10.3906 12.9024 10.3906 16C10.3906 19.0976 12.9026 21.6096 16.0002 21.6096C19.0978 21.6096 21.6098 19.0976 21.6098 16C21.6098 12.9024 19.0978 10.3904 16.0002 10.3904ZM16.0002 19.6416C13.9906 19.6416 12.3586 18.0128 12.3586 16C12.3586 13.9872 13.9906 12.3584 16.0002 12.3584C18.0098 12.3584 19.6418 13.9872 19.6418 16C19.6418 18.0128 18.0098 19.6416 16.0002 19.6416Z" fill="white"/>
<path d="M21.8306 11.4816C22.5552 11.4816 23.1426 10.8942 23.1426 10.1696C23.1426 9.44501 22.5552 8.8576 21.8306 8.8576C21.106 8.8576 20.5186 9.44501 20.5186 10.1696C20.5186 10.8942 21.106 11.4816 21.8306 11.4816Z" fill="white"/>
<defs>
<linearGradient id="paint0_linear_39_37" x1="4.68629" y1="27.3137" x2="27.3137" y2="4.68629" gradientUnits="userSpaceOnUse">
<stop stop-color="#FFD521"/>
<stop offset="0.0551048" stop-color="#FFD020"/>
<stop offset="0.1241" stop-color="#FEC01E"/>
<stop offset="0.2004" stop-color="#FCA71B"/>
<stop offset="0.2821" stop-color="#FA8316"/>
<stop offset="0.3681" stop-color="#F85510"/>
<stop offset="0.4563" stop-color="#F51E09"/>
<stop offset="0.5" stop-color="#F30005"/>
<stop offset="0.5035" stop-color="#F20007"/>
<stop offset="0.5966" stop-color="#E1003B"/>
<stop offset="0.6879" stop-color="#D30067"/>
<stop offset="0.7757" stop-color="#C70088"/>
<stop offset="0.8589" stop-color="#BF00A0"/>
<stop offset="0.9357" stop-color="#BB00AF"/>
<stop offset="1" stop-color="#B900B4"/>
</linearGradient>
</defs>
</svg>
