<svg width="37" height="38" viewBox="0 0 37 38" fill="none" xmlns="http://www.w3.org/2000/svg">
<path d="M18.5 34.3203C26.9612 34.3203 33.8203 27.4612 33.8203 19C33.8203 10.5388 26.9612 3.67969 18.5 3.67969C10.0388 3.67969 3.17969 10.5388 3.17969 19C3.17969 27.4612 10.0388 34.3203 18.5 34.3203Z" fill="url(#paint0_linear_39_211)"/>
<path d="M25.9565 12.4948L23.2216 26.2891C23.2216 26.2891 22.8386 27.2466 21.7853 26.7858L15.4717 21.9444L13.1736 20.8372L9.30765 19.5386C9.30765 19.5386 8.71519 19.3291 8.65534 18.8683C8.5955 18.4075 9.32561 18.1622 9.32561 18.1622L24.6938 12.1358C24.6938 12.1298 25.9565 11.5732 25.9565 12.4948Z" fill="white"/>
<path d="M14.9811 26.1335C14.9811 26.1335 14.7956 26.1156 14.5682 25.3914C14.3408 24.6673 13.1738 20.8372 13.1738 20.8372L22.4558 14.9425C22.4558 14.9425 22.9944 14.6194 22.9705 14.9425C22.9705 14.9425 23.0662 15.0024 22.7789 15.2657C22.4917 15.535 15.4898 21.8307 15.4898 21.8307" fill="#D2E4F0"/>
<path d="M17.8893 23.7996L15.3938 26.0797C15.3938 26.0797 15.1963 26.2293 14.9868 26.1335L15.4656 21.9025" fill="#B5CFE4"/>
<defs>
<linearGradient id="paint0_linear_39_211" x1="18.5" y1="3.67969" x2="18.5" y2="34.2085" gradientUnits="userSpaceOnUse">
<stop stop-color="#41BCE7"/>
<stop offset="1" stop-color="#22A6DC"/>
</linearGradient>
</defs>
</svg>
