<?xml version="1.0" encoding="UTF-8" standalone="no"?>
<svg
   width="32"
   height="32"
   viewBox="0 0 32 32"
   fill="none"
   version="1.1"
   id="svg17"
   sodipodi:docname="Telegram.svg"
   inkscape:version="1.1.2 (0a00cf5339, 2022-02-04)"
   xmlns:inkscape="http://www.inkscape.org/namespaces/inkscape"
   xmlns:sodipodi="http://sodipodi.sourceforge.net/DTD/sodipodi-0.dtd"
   xmlns="http://www.w3.org/2000/svg"
   xmlns:svg="http://www.w3.org/2000/svg">
  <sodipodi:namedview
     id="namedview19"
     pagecolor="#ffffff"
     bordercolor="#666666"
     borderopacity="1.0"
     inkscape:pageshadow="2"
     inkscape:pageopacity="0.0"
     inkscape:pagecheckerboard="0"
     showgrid="false"
     inkscape:zoom="22.210526"
     inkscape:cx="15.285545"
     inkscape:cy="16.186019"
     inkscape:window-width="1846"
     inkscape:window-height="1016"
     inkscape:window-x="74"
     inkscape:window-y="27"
     inkscape:window-maximized="1"
     inkscape:current-layer="svg17" />
  <path
     d="M 16.000005,32 C 24.836592,32 32,24.836592 32,16.000005 32,7.1634187 24.836592,0 16.000005,0 7.1634187,0 0,7.1634187 0,16.000005 0,24.836592 7.1634187,32 16.000005,32 Z"
     fill="url(#paint0_linear_39_211)"
     id="path2"
     style="fill:url(#paint0_linear_39_211);stroke-width:1.04436" />
  <path
     d="m 22.77681,8.81511 -2.7349,13.7943 c 0,0 -0.383,0.9575 -1.4363,0.4967 l -6.3136,-4.8414 -2.2981,-1.1072 -3.86595,-1.2986 c 0,0 -0.59246,-0.2095 -0.65231,-0.6703 -0.05984,-0.4608 0.67027,-0.7061 0.67027,-0.7061 l 15.36819,-6.0264 c 0,-0.006 1.2627,-0.5626 1.2627,0.359 z"
     fill="#ffffff"
     id="path4" />
  <path
     d="m 11.80141,22.45381 c 0,0 -0.1855,-0.0179 -0.4129,-0.7421 -0.2274,-0.7241 -1.3944,-4.5542 -1.3944,-4.5542 l 9.282,-5.8947 c 0,0 0.5386,-0.3231 0.5147,0 0,0 0.0957,0.0599 -0.1916,0.3232 -0.2872,0.2693 -7.2891,6.565 -7.2891,6.565"
     fill="#d2e4f0"
     id="path6" />
  <path
     d="m 14.70961,20.11991 -2.4955,2.2801 c 0,0 -0.1975,0.1496 -0.407,0.0538 l 0.4788,-4.231"
     fill="#b5cfe4"
     id="path8" />
  <defs
     id="defs15">
    <linearGradient
       id="paint0_linear_39_211"
       x1="18.5"
       y1="3.6796899"
       x2="18.5"
       y2="34.2085"
       gradientUnits="userSpaceOnUse"
       gradientTransform="matrix(1.0443656,0,0,1.0443656,-3.3207589,-3.8429417)">
      <stop
         stop-color="#41BCE7"
         id="stop10" />
      <stop
         offset="1"
         stop-color="#22A6DC"
         id="stop12" />
    </linearGradient>
  </defs>
</svg>
