<svg width="32" height="32" viewBox="0 0 32 32" fill="none" xmlns="http://www.w3.org/2000/svg">
<rect width="32" height="32" rx="16" fill="#25D366"/>
<path fill-rule="evenodd" clip-rule="evenodd" d="M24.235 7.80041C22.251 5.81321 19.6078 4.71881 16.795 4.71561C10.9998 4.71561 6.27976 9.43241 6.27976 15.2308C6.27976 17.0836 6.76296 18.8948 7.68456 20.4884L6.19336 25.938L11.7678 24.4756C13.3038 25.314 15.0318 25.7556 16.7918 25.7556H16.795C22.5902 25.7556 27.307 21.0388 27.3102 15.2404C27.3134 12.4308 26.2222 9.78761 24.235 7.80041ZM16.7982 23.9796H16.795C15.227 23.9796 13.6878 23.5572 12.347 22.7604L12.027 22.5716L8.71816 23.4388L9.60136 20.2132L9.39336 19.8836C8.51976 18.4916 8.05576 16.8852 8.05576 15.2308C8.05896 10.4116 11.979 6.49161 16.8014 6.49161C19.1374 6.49161 21.3294 7.40361 22.9806 9.05481C24.6318 10.706 25.5406 12.9044 25.5374 15.2372C25.5374 20.0596 21.6142 23.9796 16.7982 23.9796ZM21.5918 17.4324C21.3294 17.3012 20.0366 16.6644 19.7966 16.578C19.5566 16.4916 19.3806 16.4468 19.2046 16.7092C19.0286 16.9716 18.5262 17.5636 18.3726 17.7396C18.219 17.9156 18.0654 17.938 17.803 17.8068C17.5406 17.6756 16.6926 17.3972 15.691 16.5012C14.9102 15.8036 14.3822 14.9428 14.2286 14.6804C14.075 14.418 14.2126 14.274 14.3438 14.1428C14.4622 14.0244 14.6062 13.8356 14.7374 13.682C14.8686 13.5284 14.9134 13.4196 14.9998 13.2436C15.0862 13.0676 15.0446 12.914 14.9774 12.7828C14.9102 12.6516 14.3854 11.3588 14.1678 10.8308C13.9534 10.3188 13.739 10.3892 13.5758 10.3796C13.4222 10.3732 13.2462 10.37 13.0734 10.37C12.8974 10.37 12.6126 10.4372 12.3726 10.6996C12.1326 10.962 11.4542 11.5988 11.4542 12.8916C11.4542 14.1844 12.395 15.4356 12.5262 15.6084C12.6574 15.7844 14.379 18.4372 17.0158 19.5764C17.643 19.8484 18.1326 20.0084 18.5134 20.13C19.1438 20.3316 19.7166 20.3028 20.1678 20.2356C20.6734 20.1588 21.723 19.5988 21.9406 18.9876C22.1582 18.3732 22.1582 17.8484 22.0942 17.7396C22.0302 17.6308 21.8542 17.5668 21.5918 17.4324Z" fill="white"/>
</svg>
